<svg width="587" height="545" viewBox="0 0 587 545" fill="none" xmlns="http://www.w3.org/2000/svg">
<path fill-rule="evenodd" clip-rule="evenodd" d="M418.075 194.139C417.726 193.584 417.372 193.03 417.014 192.477C415.505 190.148 413.923 187.847 412.268 185.578C410.613 183.308 408.905 181.099 407.149 178.95C406.732 178.44 406.313 177.934 405.891 177.431C405.467 176.927 405.041 176.427 404.613 175.929C404.626 175.918 404.639 175.907 404.652 175.897C406.339 174.518 408.824 174.767 410.202 176.454C412.005 178.658 413.756 180.925 415.454 183.254C417.153 185.582 418.776 187.943 420.324 190.333C421.508 192.161 420.986 194.603 419.158 195.788C419.144 195.797 419.129 195.806 419.115 195.815C418.772 195.255 418.426 194.697 418.075 194.139ZM433.237 226.105C433.254 226.099 433.27 226.094 433.287 226.088C435.333 225.341 436.386 223.076 435.639 221.03C433.689 215.688 431.426 210.42 428.846 205.251C427.873 203.302 425.505 202.51 423.556 203.483C423.54 203.491 423.524 203.499 423.509 203.507C423.818 204.087 424.124 204.67 424.425 205.253C424.726 205.838 425.024 206.424 425.317 207.012C427.83 212.047 430.035 217.179 431.934 222.383C432.16 223.001 432.381 223.62 432.598 224.24C432.816 224.86 433.029 225.482 433.237 226.105ZM440.218 258.782C440.236 258.78 440.253 258.778 440.27 258.775C442.432 258.505 443.965 256.534 443.695 254.373C442.987 248.709 441.96 243.067 440.609 237.473C440.097 235.356 437.966 234.054 435.849 234.565C435.832 234.569 435.815 234.574 435.798 234.578C435.969 235.213 436.137 235.849 436.299 236.485C436.462 237.123 436.621 237.761 436.775 238.399C438.091 243.848 439.092 249.344 439.781 254.862C439.863 255.514 439.94 256.167 440.013 256.82C440.086 257.474 440.154 258.128 440.218 258.782ZM439.747 292.196C439.764 292.198 439.781 292.2 439.798 292.202C441.966 292.418 443.898 290.836 444.115 288.669C444.683 282.975 444.935 277.246 444.865 271.511C444.839 269.333 443.052 267.588 440.873 267.615C440.856 267.615 440.839 267.615 440.821 267.616C440.847 268.273 440.868 268.93 440.884 269.587C440.901 270.244 440.913 270.901 440.921 271.559C440.989 277.147 440.744 282.729 440.19 288.277C440.125 288.931 440.055 289.585 439.981 290.238C439.907 290.891 439.829 291.544 439.747 292.196ZM431.888 324.676C431.904 324.682 431.921 324.688 431.937 324.693C434.003 325.384 436.238 324.27 436.929 322.204C438.748 316.764 440.259 311.232 441.458 305.637C441.914 303.507 440.558 301.411 438.428 300.954C438.411 300.951 438.394 300.947 438.377 300.944C438.256 301.59 438.131 302.235 438.002 302.88C437.873 303.524 437.739 304.168 437.602 304.811C436.433 310.263 434.961 315.653 433.188 320.953C432.98 321.576 432.767 322.198 432.55 322.819C432.334 323.439 432.113 324.059 431.888 324.676ZM417.008 354.598C417.023 354.607 417.037 354.617 417.052 354.626C418.912 355.76 421.339 355.172 422.473 353.312C425.469 348.399 428.172 343.34 430.576 338.164C431.494 336.188 430.637 333.843 428.661 332.925C428.645 332.918 428.63 332.911 428.614 332.904C428.353 333.507 428.088 334.108 427.819 334.708C427.55 335.308 427.277 335.906 427 336.502C424.657 341.545 422.024 346.473 419.106 351.258C418.764 351.819 418.418 352.378 418.068 352.935C417.718 353.492 417.365 354.046 417.008 354.598ZM395.81 380.427C395.823 380.439 395.835 380.451 395.848 380.464C397.406 381.986 399.903 381.956 401.425 380.397C405.461 376.264 409.226 371.94 412.716 367.449C414.052 365.729 413.742 363.251 412.022 361.915C412.008 361.904 411.994 361.893 411.98 361.883C411.591 362.412 411.198 362.939 410.801 363.464C410.405 363.988 410.005 364.51 409.602 365.029C406.203 369.403 402.535 373.615 398.603 377.642C398.144 378.112 397.682 378.579 397.216 379.044C396.751 379.507 396.283 379.968 395.81 380.427ZM369.39 400.909C369.399 400.924 369.408 400.938 369.418 400.953C370.602 402.781 373.044 403.303 374.872 402.118C377.262 400.57 379.623 398.947 381.952 397.249C384.28 395.551 386.547 393.799 388.752 391.997C390.438 390.618 390.687 388.133 389.309 386.447C389.298 386.434 389.287 386.42 389.276 386.407C388.779 386.836 388.278 387.262 387.774 387.685C387.271 388.107 386.765 388.527 386.255 388.943C384.107 390.7 381.897 392.407 379.628 394.062C377.358 395.718 375.057 397.299 372.728 398.808C372.175 399.166 371.621 399.52 371.066 399.87C370.509 400.22 369.95 400.567 369.39 400.909ZM339.1 415.032C339.106 415.048 339.112 415.065 339.118 415.081C339.865 417.127 342.129 418.181 344.175 417.434C349.517 415.483 354.786 413.22 359.955 410.64C361.904 409.668 362.695 407.299 361.722 405.35C361.715 405.334 361.707 405.319 361.699 405.303C361.118 405.613 360.536 405.918 359.952 406.219C359.367 406.521 358.781 406.818 358.193 407.111C353.158 409.625 348.026 411.829 342.823 413.729C342.205 413.954 341.586 414.176 340.966 414.393C340.345 414.61 339.723 414.823 339.1 415.032ZM306.424 422.013C306.426 422.03 306.428 422.047 306.43 422.065C306.7 424.226 308.671 425.759 310.833 425.489C316.496 424.782 322.139 423.754 327.732 422.403C329.85 421.892 331.151 419.761 330.64 417.643C330.636 417.626 330.632 417.609 330.627 417.593C329.992 417.764 329.356 417.931 328.72 418.094C328.083 418.257 327.445 418.415 326.806 418.57C321.358 419.886 315.861 420.886 310.344 421.576C309.691 421.657 309.038 421.734 308.385 421.807C307.732 421.88 307.078 421.949 306.424 422.013ZM273.009 421.541C273.007 421.558 273.005 421.575 273.004 421.593C272.787 423.76 274.369 425.693 276.536 425.909C282.23 426.478 287.959 426.729 293.695 426.66C295.873 426.633 297.617 424.846 297.591 422.668C297.59 422.651 297.59 422.633 297.59 422.616C296.933 422.641 296.275 422.662 295.618 422.679C294.961 422.696 294.304 422.708 293.647 422.716C288.058 422.784 282.476 422.539 276.928 421.984C276.274 421.919 275.62 421.85 274.967 421.776C274.314 421.702 273.661 421.624 273.009 421.541ZM240.529 413.683C240.523 413.699 240.518 413.715 240.512 413.732C239.821 415.798 240.936 418.032 243.001 418.723C248.441 420.542 253.973 422.054 259.568 423.253C261.698 423.709 263.795 422.352 264.251 420.222C264.255 420.205 264.258 420.188 264.262 420.172C263.615 420.051 262.97 419.926 262.325 419.796C261.681 419.667 261.037 419.534 260.395 419.396C254.943 418.228 249.553 416.755 244.252 414.983C243.629 414.774 243.007 414.562 242.386 414.345C241.766 414.128 241.147 413.907 240.529 413.683ZM210.607 398.802C210.598 398.817 210.589 398.832 210.58 398.847C209.445 400.707 210.034 403.134 211.893 404.268C216.806 407.264 221.865 409.966 227.041 412.371C229.017 413.289 231.362 412.431 232.28 410.456C232.287 410.44 232.295 410.424 232.302 410.408C231.699 410.147 231.097 409.882 230.497 409.613C229.897 409.344 229.299 409.071 228.703 408.794C223.66 406.451 218.733 403.819 213.947 400.9C213.386 400.558 212.827 400.212 212.27 399.862C211.714 399.513 211.159 399.16 210.607 398.802ZM184.778 377.605C184.766 377.617 184.754 377.63 184.742 377.642C183.22 379.2 183.249 381.698 184.808 383.219C188.941 387.256 193.266 391.021 197.756 394.51C199.476 395.847 201.954 395.536 203.29 393.816C203.301 393.802 203.312 393.789 203.322 393.775C202.793 393.385 202.266 392.993 201.741 392.596C201.217 392.2 200.696 391.8 200.176 391.396C195.803 387.997 191.59 384.33 187.563 380.398C187.094 379.939 186.626 379.477 186.162 379.011C185.698 378.546 185.237 378.077 184.778 377.605ZM164.296 351.184C164.282 351.194 164.267 351.203 164.253 351.212C162.424 352.397 161.903 354.839 163.087 356.667C164.635 359.057 166.258 361.418 167.956 363.746C169.654 366.074 171.406 368.341 173.209 370.546C174.587 372.232 177.072 372.482 178.758 371.103C178.772 371.092 178.785 371.081 178.798 371.07C178.369 370.573 177.943 370.072 177.52 369.568C177.098 369.066 176.679 368.559 176.262 368.05C174.506 365.901 172.798 363.692 171.143 361.422C169.488 359.152 167.906 356.851 166.397 354.522C166.039 353.97 165.685 353.416 165.336 352.86C164.985 352.303 164.638 351.745 164.296 351.184ZM150.173 320.895C150.157 320.9 150.14 320.906 150.124 320.912C148.078 321.659 147.025 323.924 147.772 325.97C149.722 331.312 151.985 336.58 154.565 341.749C155.538 343.698 157.906 344.49 159.855 343.517C159.871 343.509 159.886 343.501 159.902 343.493C159.592 342.912 159.287 342.33 158.986 341.746C158.685 341.162 158.387 340.575 158.094 339.988C155.581 334.952 153.376 329.82 151.477 324.617C151.251 323.999 151.03 323.38 150.813 322.76C150.595 322.139 150.382 321.517 150.173 320.895ZM143.193 288.218C143.175 288.22 143.158 288.222 143.141 288.224C140.979 288.494 139.446 290.466 139.716 292.627C140.424 298.291 141.451 303.933 142.802 309.527C143.313 311.644 145.444 312.946 147.562 312.434C147.579 312.43 147.596 312.426 147.613 312.422C147.441 311.787 147.274 311.151 147.112 310.514C146.949 309.877 146.79 309.239 146.636 308.601C145.32 303.152 144.319 297.656 143.63 292.138C143.548 291.485 143.471 290.833 143.398 290.18C143.325 289.526 143.257 288.872 143.193 288.218ZM143.664 254.804C143.647 254.802 143.63 254.8 143.613 254.798C141.445 254.582 139.513 256.163 139.296 258.331C138.728 264.025 138.476 269.754 138.546 275.489C138.572 277.667 140.359 279.411 142.537 279.385C142.555 279.385 142.572 279.384 142.589 279.384C142.564 278.727 142.543 278.07 142.526 277.413C142.51 276.756 142.497 276.098 142.489 275.441C142.422 269.853 142.667 264.271 143.221 258.723C143.286 258.069 143.356 257.415 143.43 256.762C143.504 256.109 143.582 255.456 143.664 254.804ZM151.523 222.323C151.506 222.318 151.49 222.312 151.474 222.307C149.408 221.616 147.173 222.73 146.482 224.796C144.663 230.236 143.152 235.768 141.953 241.363C141.496 243.493 142.853 245.589 144.983 246.046C145 246.049 145.017 246.053 145.034 246.056C145.155 245.41 145.28 244.765 145.409 244.12C145.538 243.475 145.672 242.832 145.809 242.189C146.977 236.737 148.45 231.347 150.223 226.047C150.431 225.424 150.644 224.802 150.86 224.181C151.077 223.56 151.298 222.941 151.523 222.323ZM166.403 192.402C166.388 192.392 166.373 192.383 166.358 192.374C164.499 191.24 162.072 191.828 160.938 193.688C157.942 198.601 155.239 203.659 152.834 208.836C151.917 210.811 152.774 213.157 154.75 214.074C154.765 214.082 154.781 214.089 154.797 214.096C155.058 213.493 155.323 212.892 155.592 212.291C155.861 211.692 156.134 211.094 156.411 210.498C158.754 205.455 161.387 200.527 164.305 195.741C164.647 195.18 164.993 194.622 165.343 194.065C165.692 193.508 166.046 192.954 166.403 192.402ZM187.6 166.573C187.588 166.561 187.576 166.548 187.563 166.536C186.005 165.014 183.508 165.044 181.986 166.602C177.949 170.736 174.184 175.06 170.695 179.551C169.358 181.271 169.669 183.748 171.389 185.085C171.403 185.096 171.417 185.106 171.431 185.117C171.82 184.588 172.213 184.061 172.609 183.536C173.006 183.012 173.405 182.49 173.809 181.971C177.208 177.597 180.876 173.384 184.808 169.358C185.266 168.888 185.729 168.421 186.195 167.956C186.66 167.492 187.128 167.031 187.6 166.573ZM214.021 146.091C214.012 146.076 214.002 146.061 213.993 146.047C212.809 144.219 210.367 143.697 208.539 144.881C206.148 146.43 203.788 148.053 201.459 149.751C199.131 151.449 196.864 153.201 194.659 155.003C192.973 156.382 192.723 158.866 194.102 160.553C194.113 160.566 194.124 160.58 194.135 160.593C194.632 160.164 195.133 159.738 195.637 159.315C196.14 158.893 196.646 158.473 197.156 158.057C199.304 156.3 201.513 154.593 203.783 152.937C206.053 151.282 208.354 149.7 210.683 148.191C211.235 147.834 211.789 147.48 212.345 147.13C212.902 146.779 213.461 146.433 214.021 146.091ZM244.311 131.968C244.305 131.951 244.299 131.935 244.293 131.918C243.546 129.872 241.282 128.819 239.236 129.566C233.894 131.516 228.625 133.779 223.456 136.359C221.507 137.332 220.716 139.701 221.688 141.65C221.696 141.665 221.704 141.681 221.712 141.696C222.293 141.387 222.875 141.082 223.459 140.781C224.044 140.479 224.63 140.182 225.217 139.888C230.253 137.375 235.385 135.171 240.588 133.271C241.206 133.045 241.825 132.824 242.445 132.607C243.066 132.39 243.688 132.177 244.311 131.968ZM276.987 124.987C276.985 124.97 276.983 124.952 276.981 124.935C276.711 122.774 274.74 121.241 272.578 121.511C266.915 122.218 261.272 123.245 255.679 124.596C253.561 125.108 252.259 127.239 252.771 129.356C252.775 129.373 252.779 129.39 252.783 129.407C253.419 129.236 254.054 129.069 254.691 128.906C255.328 128.743 255.966 128.585 256.605 128.43C262.053 127.114 267.55 126.114 273.067 125.424C273.72 125.343 274.373 125.265 275.026 125.193C275.679 125.12 276.333 125.051 276.987 124.987ZM310.402 125.459C310.404 125.442 310.405 125.424 310.407 125.407C310.624 123.24 309.042 121.307 306.875 121.091C301.181 120.522 295.452 120.27 289.716 120.34C287.538 120.367 285.794 122.154 285.82 124.332C285.821 124.349 285.821 124.367 285.821 124.384C286.478 124.359 287.135 124.338 287.792 124.321C288.45 124.304 289.107 124.292 289.764 124.284C295.352 124.216 300.935 124.461 306.483 125.015C307.137 125.081 307.79 125.15 308.444 125.224C309.097 125.298 309.75 125.376 310.402 125.459ZM342.882 133.317C342.888 133.301 342.893 133.285 342.899 133.268C343.59 131.202 342.475 128.968 340.409 128.277C334.969 126.457 329.438 124.946 323.843 123.747C321.713 123.291 319.616 124.648 319.16 126.778C319.156 126.794 319.153 126.811 319.149 126.828C319.795 126.949 320.441 127.074 321.085 127.203C321.73 127.333 322.373 127.466 323.016 127.604C328.468 128.772 333.858 130.244 339.158 132.017C339.782 132.226 340.404 132.438 341.024 132.655C341.645 132.872 342.264 133.092 342.882 133.317ZM372.804 148.198C372.813 148.183 372.822 148.168 372.831 148.153C373.965 146.293 373.377 143.866 371.517 142.732C366.604 139.736 361.546 137.034 356.369 134.629C354.394 133.711 352.049 134.569 351.131 136.544C351.123 136.56 351.116 136.576 351.109 136.592C351.712 136.853 352.314 137.118 352.914 137.387C353.513 137.656 354.111 137.929 354.708 138.206C359.751 140.549 364.678 143.181 369.464 146.099C370.025 146.442 370.584 146.787 371.141 147.137C371.697 147.487 372.251 147.84 372.804 148.198ZM380.088 153.225C380.099 153.211 380.11 153.197 380.12 153.183C381.457 151.464 383.935 151.153 385.655 152.489C390.145 155.979 394.47 159.744 398.603 163.78C400.161 165.302 400.191 167.799 398.669 169.358C398.657 169.37 398.645 169.383 398.632 169.395C398.174 168.923 397.713 168.454 397.249 167.989C396.784 167.523 396.317 167.061 395.847 166.602C391.821 162.67 387.608 159.003 383.235 155.604C382.715 155.2 382.193 154.8 381.669 154.404C381.145 154.007 380.618 153.614 380.088 153.225Z" fill="#98DC87"/>
<path fill-rule="evenodd" clip-rule="evenodd" d="M367.027 375.836C424.466 333.948 437.361 253.824 395.83 196.874C354.298 139.924 274.067 127.714 216.628 169.602C159.19 211.49 146.294 291.614 187.826 348.564C229.358 405.514 309.589 417.724 367.027 375.836ZM368.57 377.951C427.187 335.204 440.346 253.436 397.963 195.318C355.579 137.2 273.702 124.74 215.086 167.487C156.469 210.234 143.309 292.002 185.693 350.12C228.076 408.238 309.953 420.698 368.57 377.951Z" fill="#98DC87"/>
<path d="M174.787 375.424C173.94 376.042 173.438 375.606 172.959 375.331L138.391 354.73L132.767 358.832L141.878 397.998C142.018 398.698 141.952 399.37 141.106 399.987L135.24 404.265L137.913 407.93L158.049 393.245L155.376 389.58L148.241 394.783C147.394 395.401 146.614 395.346 146.474 394.646L143.718 382.485L156.417 373.224L167.154 379.565C167.633 379.84 168.075 380.319 167.228 380.937L160.214 386.052L162.887 389.718L183.023 375.033L180.35 371.367L174.787 375.424ZM152.565 370.864L142.708 378.052L138.805 362.539L152.565 370.864Z" fill="#98DC87"/>
<path d="M160.258 338.783L162.931 342.449L170.188 337.157C171.034 336.54 171.331 336.947 171.713 337.471L190.17 362.78C190.552 363.303 190.849 363.711 190.003 364.328L182.746 369.62L185.419 373.285L207.672 357.057L204.999 353.392L197.138 359.125C196.291 359.742 195.994 359.335 195.612 358.811L187.084 347.116L196.396 340.325C201.355 336.709 208.403 329.608 202.633 321.695C196.862 313.783 188.074 318.498 182.511 322.555L160.258 338.783ZM184.623 343.742L177.155 333.502C176.773 332.978 176.476 332.571 177.323 331.953L185.184 326.221C188.51 323.795 192.489 321.25 196.223 326.37C199.957 331.49 197.261 334.525 193.935 336.951L184.623 343.742Z" fill="#98DC87"/>
<path d="M198.465 310.921L201.138 314.586L208.394 309.294C209.241 308.677 209.538 309.084 209.92 309.608L228.377 334.917C228.759 335.441 229.056 335.848 228.209 336.465L220.953 341.757L223.626 345.423L245.879 329.194L243.206 325.529L235.345 331.262C234.498 331.879 234.201 331.472 233.819 330.948L225.291 319.254L234.603 312.462C239.561 308.846 246.61 301.745 240.839 293.833C235.069 285.92 226.281 290.635 220.718 294.692L198.465 310.921ZM222.83 315.879L215.362 305.639C214.98 305.115 214.683 304.708 215.53 304.091L223.391 298.358C226.716 295.932 230.696 293.387 234.43 298.507C238.163 303.627 235.468 306.662 232.142 309.088L222.83 315.879Z" fill="#98DC87"/>
<path d="M289.847 274.938L295.617 282.85C297.994 286.109 296.628 288.174 295.056 289.32C293.302 290.599 291.04 291.18 287.688 286.583C284.42 282.103 279.909 279.6 275.063 281.085C279.356 277.954 282.025 272.086 277.739 266.21C271.969 258.297 264.487 262.772 258.924 266.829L236.672 283.058L239.345 286.723L246.722 281.343C247.568 280.726 247.865 281.133 248.247 281.657L266.705 306.966C267.086 307.49 267.383 307.897 266.537 308.514L259.16 313.894L261.833 317.56L284.085 301.331L281.412 297.666L273.43 303.487C272.584 304.104 272.287 303.697 271.905 303.173L262.613 290.432L267.934 286.551C271.441 283.993 276.135 282.174 282.245 290.552C286.913 296.952 290.666 297.78 296.773 293.326C301.308 290.019 302.913 285.106 299.264 280.102L293.536 272.248L289.847 274.938ZM253.448 277.864C253.066 277.341 252.769 276.933 253.615 276.316L261.597 270.495C264.923 268.07 268.563 265.059 272.297 270.179C276.031 275.299 272.911 277.752 269.585 280.178L260.152 287.057L253.448 277.864Z" fill="#98DC87"/>
<path d="M328.845 242.309C336.271 252.49 334.803 265.593 324.704 272.957C314.606 280.322 301.682 277.715 294.257 267.533C286.831 257.351 288.257 244.19 298.355 236.826C308.454 229.462 321.42 232.127 328.845 242.309ZM322.556 246.895C315.131 236.713 308.526 235.023 301.028 240.491C293.53 245.96 293.12 252.765 300.546 262.947C307.971 273.128 314.533 274.76 322.031 269.292C329.53 263.823 329.982 257.077 322.556 246.895Z" fill="#98DC87"/>
<path d="M344.937 209.718L352.374 204.294C353.221 203.677 353.699 203.952 353.9 204.608L361.537 236.292L333.945 219.16C333.382 218.769 333.266 218.229 334.113 217.612L340.704 212.805L338.031 209.14L318.076 223.692L320.749 227.358L325.768 223.697C326.615 223.08 327.093 223.355 327.656 223.746L361.741 244.7L367.848 240.246L358.496 201.256C358.356 200.556 358.18 200.061 359.026 199.443L364.892 195.166L362.219 191.5L342.264 206.053L344.937 209.718Z" fill="#98DC87"/>
<path d="M402.31 162.263L364.637 189.736L367.31 193.402L374.385 188.242C375.232 187.625 375.529 188.032 375.911 188.556L394.368 213.865C394.75 214.389 395.047 214.796 394.2 215.413L387.125 220.573L389.798 224.238L427.471 196.765L418.306 184.198L413.71 187.549L419.523 195.52C419.905 196.044 420.202 196.451 419.355 197.069L401.698 209.945C400.852 210.563 400.555 210.155 400.173 209.632L392.111 198.577L401.726 191.565L406.436 198.024L411.031 194.672L399.151 178.381L394.555 181.733L399.265 188.191L389.65 195.203L381.716 184.322C381.334 183.799 381.037 183.392 381.884 182.774L399.541 169.898C400.387 169.28 400.684 169.687 401.066 170.211L406.879 178.182L411.475 174.831L402.31 162.263Z" fill="#98DC87"/>
<path d="M431.43 193.878L428.757 190.212L436.013 184.921C436.86 184.303 436.563 183.896 436.181 183.372L417.724 158.063C417.342 157.539 417.045 157.132 416.198 157.749L408.942 163.041L406.269 159.376L428.522 143.148C438.62 135.783 452.141 136.796 459.567 146.978C466.992 157.16 463.781 170.285 453.683 177.65L431.43 193.878ZM451.01 173.984C458.508 168.516 460.764 161.702 453.338 151.52C445.913 141.338 438.693 141.345 431.195 146.813L423.334 152.546C422.487 153.163 422.784 153.571 423.166 154.094L441.623 179.403C442.005 179.927 442.302 180.334 443.149 179.717L451.01 173.984Z" fill="#98DC87"/>
<g opacity="0.3" filter="url(#filter0_f_4_1245)">
<path fill-rule="evenodd" clip-rule="evenodd" d="M416.668 195.877C416.318 195.321 415.964 194.767 415.606 194.215C414.097 191.886 412.515 189.585 410.86 187.315C409.205 185.045 407.498 182.836 405.741 180.687C405.325 180.178 404.905 179.672 404.483 179.169C404.06 178.665 403.634 178.164 403.205 177.667C403.218 177.656 403.231 177.645 403.245 177.634C404.931 176.255 407.416 176.505 408.795 178.191C410.597 180.396 412.349 182.663 414.047 184.991C415.745 187.32 417.368 189.68 418.916 192.07C420.101 193.899 419.579 196.341 417.751 197.525C417.736 197.534 417.722 197.544 417.707 197.553C417.365 196.993 417.018 196.434 416.668 195.877ZM431.83 227.843C431.846 227.837 431.863 227.831 431.879 227.825C433.925 227.078 434.979 224.814 434.232 222.767C432.281 217.426 430.018 212.157 427.438 206.988C426.465 205.039 424.097 204.248 422.148 205.22C422.132 205.228 422.117 205.236 422.101 205.244C422.411 205.825 422.716 206.407 423.017 206.991C423.319 207.576 423.616 208.162 423.909 208.749C426.423 213.785 428.627 218.917 430.527 224.12C430.752 224.738 430.974 225.357 431.191 225.977C431.408 226.598 431.621 227.22 431.83 227.843ZM438.811 260.519C438.828 260.517 438.845 260.515 438.863 260.513C441.024 260.243 442.557 258.272 442.287 256.11C441.579 250.447 440.552 244.804 439.201 239.211C438.69 237.093 436.559 235.791 434.441 236.303C434.424 236.307 434.407 236.311 434.391 236.315C434.562 236.95 434.729 237.586 434.892 238.223C435.055 238.86 435.213 239.498 435.367 240.137C436.683 245.585 437.684 251.082 438.374 256.599C438.455 257.252 438.532 257.905 438.605 258.558C438.678 259.211 438.746 259.865 438.811 260.519ZM438.339 293.934C438.356 293.936 438.373 293.937 438.39 293.939C440.558 294.155 442.49 292.574 442.707 290.406C443.276 284.713 443.527 278.984 443.458 273.248C443.431 271.07 441.644 269.326 439.466 269.352C439.448 269.352 439.431 269.353 439.414 269.353C439.439 270.01 439.46 270.667 439.477 271.324C439.493 271.982 439.506 272.639 439.514 273.296C439.582 278.884 439.336 284.467 438.782 290.015C438.717 290.669 438.647 291.322 438.574 291.975C438.5 292.629 438.421 293.281 438.339 293.934ZM430.48 326.414C430.497 326.42 430.513 326.425 430.53 326.431C432.595 327.122 434.83 326.007 435.521 323.941C437.34 318.501 438.852 312.97 440.05 307.374C440.507 305.245 439.15 303.148 437.02 302.692C437.003 302.688 436.986 302.685 436.969 302.681C436.849 303.327 436.724 303.973 436.594 304.617C436.465 305.262 436.332 305.905 436.194 306.548C435.026 312 433.553 317.39 431.781 322.69C431.572 323.314 431.36 323.936 431.143 324.556C430.926 325.177 430.705 325.796 430.48 326.414ZM415.6 356.336C415.615 356.345 415.63 356.354 415.645 356.363C417.505 357.497 419.932 356.909 421.066 355.049C424.062 350.136 426.764 345.078 429.169 339.901C430.087 337.926 429.229 335.58 427.254 334.663C427.238 334.655 427.222 334.648 427.206 334.641C426.945 335.244 426.68 335.846 426.411 336.446C426.142 337.045 425.869 337.643 425.592 338.24C423.249 343.282 420.617 348.21 417.698 352.996C417.356 353.557 417.01 354.116 416.66 354.673C416.311 355.229 415.958 355.783 415.6 356.336ZM394.403 382.164C394.415 382.177 394.428 382.189 394.44 382.201C395.998 383.723 398.495 383.693 400.017 382.135C404.054 378.002 407.819 373.677 411.308 369.187C412.645 367.467 412.334 364.989 410.614 363.652C410.6 363.642 410.586 363.631 410.573 363.62C410.183 364.15 409.79 364.677 409.394 365.201C408.998 365.725 408.598 366.247 408.194 366.766C404.795 371.14 401.128 375.353 397.196 379.379C396.737 379.849 396.274 380.316 395.808 380.781C395.344 381.245 394.875 381.706 394.403 382.164ZM367.982 402.647C367.992 402.661 368.001 402.676 368.01 402.69C369.194 404.518 371.637 405.04 373.465 403.856C375.855 402.308 378.215 400.684 380.544 398.986C382.872 397.288 385.139 395.537 387.344 393.734C389.03 392.355 389.28 389.871 387.901 388.184C387.89 388.171 387.879 388.158 387.868 388.145C387.371 388.573 386.87 388.999 386.366 389.423C385.863 389.845 385.357 390.264 384.848 390.681C382.699 392.437 380.49 394.144 378.22 395.8C375.95 397.455 373.649 399.037 371.32 400.546C370.768 400.904 370.214 401.257 369.658 401.607C369.101 401.958 368.543 402.304 367.982 402.647ZM337.693 416.769C337.698 416.786 337.704 416.802 337.71 416.819C338.457 418.865 340.721 419.918 342.768 419.171C348.11 417.221 353.378 414.958 358.547 412.378C360.496 411.405 361.288 409.036 360.315 407.088C360.307 407.072 360.299 407.056 360.291 407.041C359.71 407.35 359.128 407.656 358.544 407.957C357.96 408.258 357.373 408.556 356.786 408.849C351.75 411.362 346.618 413.567 341.415 415.466C340.797 415.692 340.178 415.913 339.558 416.13C338.937 416.347 338.315 416.561 337.693 416.769ZM305.016 423.75C305.018 423.767 305.02 423.785 305.022 423.802C305.292 425.963 307.263 427.497 309.425 427.227C315.089 426.519 320.731 425.492 326.325 424.141C328.442 423.629 329.744 421.498 329.232 419.381C329.228 419.364 329.224 419.347 329.22 419.33C328.585 419.501 327.949 419.668 327.312 419.831C326.675 419.994 326.037 420.153 325.399 420.307C319.95 421.623 314.453 422.624 308.936 423.313C308.283 423.395 307.631 423.472 306.978 423.545C306.324 423.617 305.67 423.686 305.016 423.75ZM271.602 423.278C271.6 423.296 271.598 423.313 271.596 423.33C271.38 425.497 272.961 427.43 275.129 427.646C280.822 428.215 286.551 428.467 292.287 428.397C294.465 428.371 296.209 426.583 296.183 424.405C296.183 424.388 296.182 424.371 296.182 424.353C295.525 424.379 294.868 424.4 294.211 424.416C293.554 424.433 292.896 424.445 292.239 424.453C286.651 424.521 281.069 424.276 275.521 423.722C274.866 423.657 274.213 423.587 273.56 423.513C272.906 423.439 272.254 423.361 271.602 423.278ZM239.121 415.42C239.116 415.436 239.11 415.453 239.104 415.469C238.414 417.535 239.528 419.77 241.594 420.461C247.034 422.28 252.566 423.791 258.161 424.99C260.291 425.446 262.387 424.09 262.844 421.96C262.847 421.943 262.851 421.926 262.854 421.909C262.208 421.788 261.562 421.663 260.918 421.534C260.273 421.405 259.63 421.271 258.987 421.133C253.535 419.965 248.145 418.493 242.845 416.72C242.222 416.512 241.6 416.299 240.979 416.082C240.358 415.866 239.739 415.645 239.121 415.42ZM209.2 400.54C209.19 400.555 209.181 400.569 209.172 400.584C208.038 402.444 208.626 404.871 210.486 406.005C215.399 409.001 220.457 411.704 225.634 414.108C227.609 415.026 229.955 414.169 230.872 412.193C230.88 412.177 230.887 412.162 230.894 412.146C230.291 411.885 229.689 411.62 229.089 411.35C228.49 411.082 227.892 410.809 227.296 410.531C222.253 408.189 217.325 405.556 212.539 402.638C211.978 402.296 211.419 401.95 210.862 401.6C210.306 401.25 209.752 400.897 209.2 400.54ZM183.371 379.342C183.359 379.355 183.346 379.367 183.334 379.38C181.812 380.938 181.842 383.435 183.4 384.957C187.533 388.993 191.858 392.758 196.348 396.248C198.068 397.584 200.546 397.274 201.883 395.554C201.894 395.54 201.904 395.526 201.915 395.512C201.386 395.123 200.859 394.73 200.334 394.333C199.81 393.937 199.288 393.537 198.769 393.134C194.395 389.735 190.182 386.067 186.156 382.135C185.686 381.676 185.219 381.214 184.754 380.748C184.29 380.283 183.829 379.814 183.371 379.342ZM162.888 352.922C162.874 352.931 162.859 352.94 162.845 352.95C161.017 354.134 160.495 356.576 161.679 358.404C163.228 360.794 164.851 363.155 166.549 365.483C168.247 367.812 169.999 370.079 171.801 372.284C173.18 373.97 175.664 374.219 177.351 372.841C177.364 372.83 177.377 372.819 177.391 372.808C176.962 372.311 176.536 371.81 176.113 371.306C175.69 370.803 175.271 370.297 174.854 369.787C173.098 367.639 171.391 365.429 169.735 363.16C168.08 360.89 166.498 358.589 164.989 356.26C164.632 355.707 164.278 355.153 163.928 354.598C163.577 354.041 163.231 353.482 162.888 352.922ZM148.766 322.632C148.749 322.638 148.733 322.644 148.716 322.65C146.67 323.397 145.617 325.661 146.364 327.707C148.314 333.049 150.577 338.318 153.157 343.487C154.13 345.436 156.499 346.227 158.448 345.254C158.463 345.246 158.479 345.239 158.494 345.231C158.185 344.65 157.88 344.068 157.579 343.484C157.277 342.899 156.98 342.313 156.686 341.725C154.173 336.69 151.968 331.558 150.069 326.355C149.843 325.737 149.622 325.118 149.405 324.498C149.188 323.877 148.975 323.255 148.766 322.632ZM141.785 289.956C141.768 289.958 141.75 289.96 141.733 289.962C139.572 290.232 138.038 292.203 138.309 294.364C139.016 300.028 140.043 305.671 141.394 311.264C141.906 313.381 144.037 314.683 146.154 314.172C146.171 314.168 146.188 314.164 146.205 314.159C146.034 313.524 145.867 312.888 145.704 312.252C145.541 311.615 145.382 310.977 145.228 310.338C143.912 304.89 142.912 299.393 142.222 293.875C142.141 293.223 142.063 292.57 141.991 291.917C141.918 291.263 141.849 290.61 141.785 289.956ZM142.257 256.541C142.24 256.539 142.222 256.537 142.205 256.536C140.038 256.319 138.105 257.901 137.889 260.068C137.32 265.762 137.068 271.491 137.138 277.227C137.165 279.405 138.952 281.149 141.13 281.122C141.147 281.122 141.165 281.122 141.182 281.121C141.156 280.464 141.135 279.807 141.119 279.15C141.102 278.493 141.09 277.836 141.082 277.179C141.014 271.59 141.259 266.008 141.813 260.46C141.879 259.806 141.948 259.152 142.022 258.499C142.096 257.846 142.174 257.193 142.257 256.541ZM150.115 224.061C150.099 224.055 150.082 224.049 150.066 224.044C148 223.353 145.766 224.468 145.075 226.533C143.255 231.973 141.744 237.505 140.545 243.1C140.089 245.23 141.446 247.327 143.575 247.783C143.592 247.787 143.609 247.79 143.626 247.794C143.747 247.147 143.872 246.502 144.001 245.857C144.131 245.213 144.264 244.569 144.402 243.926C145.57 238.475 147.042 233.085 148.815 227.784C149.023 227.161 149.236 226.539 149.453 225.918C149.669 225.298 149.89 224.679 150.115 224.061ZM164.995 194.139C164.981 194.13 164.966 194.121 164.951 194.111C163.091 192.977 160.664 193.566 159.53 195.425C156.534 200.338 153.832 205.397 151.427 210.573C150.509 212.549 151.367 214.894 153.342 215.812C153.358 215.819 153.374 215.826 153.389 215.834C153.65 215.231 153.916 214.629 154.185 214.029C154.454 213.429 154.727 212.831 155.004 212.235C157.346 207.192 159.979 202.264 162.897 197.479C163.239 196.918 163.585 196.359 163.935 195.802C164.285 195.246 164.638 194.691 164.995 194.139ZM186.193 168.31C186.18 168.298 186.168 168.286 186.156 168.274C184.597 166.752 182.1 166.781 180.578 168.34C176.542 172.473 172.777 176.798 169.287 181.288C167.951 183.008 168.261 185.486 169.981 186.822C169.995 186.833 170.009 186.844 170.023 186.854C170.412 186.325 170.805 185.798 171.202 185.273C171.598 184.749 171.998 184.228 172.402 183.708C175.8 179.334 179.468 175.122 183.4 171.095C183.859 170.626 184.321 170.158 184.787 169.694C185.252 169.23 185.721 168.769 186.193 168.31ZM212.613 147.828C212.604 147.813 212.595 147.799 212.585 147.784C211.401 145.956 208.959 145.434 207.131 146.619C204.741 148.167 202.38 149.79 200.052 151.488C197.723 153.186 195.456 154.938 193.252 156.74C191.565 158.119 191.316 160.604 192.694 162.29C192.705 162.304 192.716 162.317 192.727 162.33C193.225 161.901 193.725 161.475 194.229 161.052C194.732 160.63 195.238 160.211 195.748 159.794C197.897 158.037 200.106 156.33 202.376 154.675C204.645 153.02 206.946 151.438 209.275 149.929C209.828 149.571 210.382 149.217 210.937 148.868C211.494 148.517 212.053 148.17 212.613 147.828ZM242.903 133.705C242.897 133.689 242.891 133.672 242.885 133.656C242.138 131.61 239.874 130.557 237.828 131.304C232.486 133.254 227.218 135.517 222.048 138.097C220.1 139.07 219.308 141.438 220.281 143.387C220.289 143.403 220.297 143.418 220.305 143.434C220.885 143.124 221.468 142.819 222.051 142.518C222.636 142.216 223.222 141.919 223.81 141.626C228.845 139.112 233.977 136.908 239.181 135.008C239.799 134.783 240.418 134.562 241.037 134.345C241.658 134.127 242.28 133.914 242.903 133.705ZM275.579 126.724C275.578 126.707 275.576 126.69 275.573 126.673C275.303 124.511 273.332 122.978 271.171 123.248C265.507 123.956 259.865 124.983 254.271 126.334C252.154 126.845 250.852 128.976 251.363 131.094C251.367 131.111 251.372 131.128 251.376 131.145C252.011 130.973 252.647 130.806 253.283 130.643C253.921 130.481 254.558 130.322 255.197 130.168C260.646 128.852 266.142 127.851 271.66 127.162C272.312 127.08 272.965 127.003 273.618 126.93C274.272 126.857 274.925 126.789 275.579 126.724ZM308.994 127.196C308.996 127.179 308.998 127.162 309 127.145C309.216 124.977 307.634 123.045 305.467 122.828C299.773 122.26 294.044 122.008 288.309 122.078C286.13 122.104 284.386 123.891 284.413 126.069C284.413 126.087 284.413 126.104 284.414 126.121C285.071 126.096 285.728 126.075 286.385 126.058C287.042 126.042 287.699 126.029 288.356 126.021C293.945 125.953 299.527 126.199 305.075 126.753C305.729 126.818 306.383 126.888 307.036 126.962C307.689 127.035 308.342 127.114 308.994 127.196ZM341.474 135.055C341.48 135.038 341.486 135.022 341.491 135.005C342.182 132.94 341.068 130.705 339.002 130.014C333.562 128.195 328.03 126.683 322.435 125.485C320.305 125.028 318.208 126.385 317.752 128.515C317.749 128.532 317.745 128.549 317.742 128.566C318.388 128.686 319.033 128.811 319.678 128.941C320.322 129.07 320.966 129.204 321.609 129.341C327.061 130.509 332.451 131.982 337.751 133.755C338.374 133.963 338.996 134.176 339.617 134.392C340.237 134.609 340.857 134.83 341.474 135.055ZM371.396 149.935C371.405 149.92 371.415 149.905 371.424 149.89C372.558 148.031 371.97 145.604 370.11 144.47C365.197 141.474 360.138 138.771 354.962 136.366C352.986 135.449 350.641 136.306 349.723 138.281C349.716 138.297 349.709 138.313 349.702 138.329C350.305 138.59 350.906 138.855 351.506 139.124C352.106 139.393 352.704 139.666 353.3 139.943C358.343 142.286 363.271 144.919 368.056 147.837C368.617 148.179 369.176 148.525 369.733 148.875C370.289 149.224 370.844 149.578 371.396 149.935ZM378.681 154.963C378.691 154.949 378.702 154.935 378.713 154.921C380.049 153.201 382.527 152.89 384.247 154.227C388.737 157.716 393.062 161.481 397.195 165.518C398.754 167.04 398.783 169.537 397.262 171.095C397.249 171.108 397.237 171.12 397.225 171.132C396.766 170.66 396.305 170.192 395.842 169.727C395.377 169.261 394.91 168.798 394.44 168.34C390.413 164.407 386.201 160.74 381.827 157.341C381.308 156.937 380.786 156.537 380.262 156.141C379.737 155.745 379.21 155.352 378.681 154.963Z" fill="#98DC87"/>
<path fill-rule="evenodd" clip-rule="evenodd" d="M365.62 377.573C423.058 335.685 435.954 255.561 394.422 198.611C352.89 141.662 272.659 129.452 215.221 171.34C157.782 213.228 144.887 293.352 186.418 350.301C227.95 407.251 308.181 419.461 365.62 377.573ZM367.162 379.688C425.779 336.941 438.939 255.173 396.555 197.055C354.172 138.938 272.295 126.477 213.678 169.224C155.061 211.972 141.901 293.739 184.285 351.857C226.669 409.975 308.545 422.436 367.162 379.688Z" fill="#98DC87"/>
<path d="M173.379 377.162C172.533 377.779 172.03 377.344 171.552 377.069L136.983 356.468L131.36 360.569L140.47 399.735C140.61 400.435 140.545 401.107 139.698 401.725L133.832 406.002L136.506 409.668L156.642 394.983L153.969 391.317L146.833 396.521C145.987 397.138 145.206 397.084 145.066 396.384L142.311 384.222L155.009 374.962L165.747 381.302C166.225 381.577 166.667 382.057 165.821 382.674L158.806 387.79L161.479 391.455L181.616 376.77L178.943 373.105L173.379 377.162ZM151.157 372.602L141.301 379.79L137.398 364.276L151.157 372.602Z" fill="#98DC87"/>
<path d="M158.851 340.521L161.524 344.186L168.78 338.895C169.627 338.277 169.924 338.685 170.305 339.208L188.763 364.517C189.145 365.041 189.442 365.448 188.595 366.066L181.339 371.357L184.012 375.023L206.264 358.795L203.591 355.129L195.73 360.862C194.884 361.479 194.587 361.072 194.205 360.549L185.676 348.854L194.989 342.063C199.947 338.447 206.996 331.346 201.225 323.433C195.455 315.52 186.666 320.236 181.103 324.293L158.851 340.521ZM183.215 345.479L175.748 335.239C175.366 334.716 175.069 334.308 175.915 333.691L183.776 327.958C187.102 325.533 191.081 322.987 194.815 328.107C198.549 333.227 195.854 336.263 192.528 338.688L183.215 345.479Z" fill="#98DC87"/>
<path d="M197.057 312.658L199.73 316.324L206.987 311.032C207.833 310.414 208.13 310.822 208.512 311.345L226.969 336.655C227.351 337.178 227.648 337.585 226.802 338.203L219.545 343.495L222.218 347.16L244.471 330.932L241.798 327.266L233.937 332.999C233.09 333.617 232.793 333.209 232.412 332.686L223.883 320.991L233.195 314.2C238.154 310.584 245.202 303.483 239.432 295.57C233.661 287.657 224.873 292.373 219.31 296.43L197.057 312.658ZM221.422 317.616L213.954 307.376C213.572 306.853 213.275 306.446 214.122 305.828L221.983 300.095C225.309 297.67 229.288 295.124 233.022 300.245C236.756 305.365 234.06 308.4 230.734 310.825L221.422 317.616Z" fill="#98DC87"/>
<path d="M288.439 276.675L294.21 284.588C296.586 287.846 295.221 289.911 293.648 291.058C291.895 292.337 289.632 292.917 286.28 288.321C283.013 283.841 278.501 281.338 273.655 282.822C277.949 279.691 280.617 273.824 276.332 267.947C270.561 260.035 263.08 264.51 257.517 268.567L235.264 284.795L237.937 288.461L245.314 283.081C246.161 282.463 246.458 282.871 246.84 283.394L265.297 308.703C265.679 309.227 265.976 309.634 265.129 310.252L257.752 315.632L260.425 319.297L282.678 303.069L280.005 299.404L272.023 305.225C271.176 305.842 270.879 305.435 270.497 304.911L261.205 292.169L266.526 288.288C270.034 285.731 274.728 283.912 280.838 292.29C285.505 298.69 289.258 299.518 295.366 295.064C299.901 291.757 301.505 286.843 297.856 281.84L292.128 273.985L288.439 276.675ZM252.04 279.602C251.658 279.078 251.361 278.671 252.208 278.053L260.19 272.232C263.516 269.807 267.155 266.796 270.889 271.916C274.623 277.036 271.503 279.49 268.177 281.915L258.744 288.795L252.04 279.602Z" fill="#98DC87"/>
<path d="M327.438 244.046C334.863 254.228 333.395 267.33 323.297 274.695C313.198 282.059 300.275 279.452 292.849 269.27C285.424 259.088 286.849 245.928 296.948 238.564C307.046 231.199 320.012 233.864 327.438 244.046ZM321.149 248.632C313.724 238.45 307.119 236.761 299.621 242.229C292.123 247.697 291.713 254.502 299.138 264.684C306.563 274.866 313.126 276.497 320.624 271.029C328.122 265.561 328.574 258.814 321.149 248.632Z" fill="#98DC87"/>
<path d="M343.529 211.456L350.967 206.032C351.813 205.414 352.292 205.689 352.492 206.345L360.13 238.03L332.537 220.898C331.974 220.506 331.859 219.967 332.705 219.349L339.296 214.543L336.623 210.877L316.668 225.43L319.341 229.095L324.36 225.435C325.207 224.818 325.685 225.093 326.249 225.484L360.333 246.438L366.441 241.984L357.088 202.994C356.948 202.294 356.772 201.798 357.619 201.181L363.484 196.903L360.811 193.238L340.856 207.79L343.529 211.456Z" fill="#98DC87"/>
<path d="M400.902 164.001L363.23 191.474L365.903 195.139L372.978 189.98C373.824 189.363 374.121 189.77 374.503 190.293L392.96 215.603C393.342 216.126 393.639 216.534 392.793 217.151L385.718 222.31L388.391 225.976L426.063 198.503L416.898 185.935L412.303 189.287L418.116 197.258C418.497 197.781 418.794 198.189 417.948 198.806L400.291 211.683C399.444 212.3 399.147 211.893 398.765 211.369L390.704 200.315L400.318 193.303L405.028 199.761L409.624 196.41L397.743 180.119L393.148 183.47L397.857 189.928L388.243 196.94L380.308 186.06C379.926 185.536 379.629 185.129 380.476 184.512L398.133 171.635C398.98 171.018 399.277 171.425 399.658 171.949L405.471 179.92L410.067 176.568L400.902 164.001Z" fill="#98DC87"/>
<path d="M430.023 195.615L427.349 191.95L434.606 186.658C435.452 186.041 435.155 185.633 434.773 185.11L416.316 159.801C415.934 159.277 415.637 158.87 414.791 159.487L407.535 164.779L404.861 161.113L427.114 144.885C437.212 137.521 450.734 138.533 458.159 148.715C465.584 158.897 462.374 172.023 452.275 179.387L430.023 195.615ZM449.602 175.722C457.1 170.254 459.356 163.439 451.931 153.257C444.505 143.076 437.285 143.082 429.787 148.551L421.926 154.283C421.08 154.901 421.377 155.308 421.759 155.832L440.216 181.141C440.598 181.665 440.895 182.072 441.741 181.454L449.602 175.722Z" fill="#98DC87"/>
</g>
<defs>
<filter id="filter0_f_4_1245" x="127.36" y="118.066" width="338.863" height="314.342" filterUnits="userSpaceOnUse" color-interpolation-filters="sRGB">
<feFlood flood-opacity="0" result="BackgroundImageFix"/>
<feBlend mode="normal" in="SourceGraphic" in2="BackgroundImageFix" result="shape"/>
<feGaussianBlur stdDeviation="2" result="effect1_foregroundBlur_4_1245"/>
</filter>
</defs>
</svg>
