<svg width="610" height="623" viewBox="0 0 610 623" fill="none" xmlns="http://www.w3.org/2000/svg">
<path fill-rule="evenodd" clip-rule="evenodd" d="M181.37 388.575C181.718 389.132 182.07 389.687 182.426 390.241C183.927 392.575 185.502 394.881 187.149 397.156C188.797 399.431 190.497 401.646 192.247 403.801C192.662 404.312 193.079 404.819 193.5 405.323C193.921 405.829 194.346 406.331 194.773 406.83C194.76 406.841 194.746 406.852 194.733 406.862C193.042 408.236 190.558 407.978 189.185 406.287C187.39 404.076 185.645 401.804 183.955 399.47C182.265 397.135 180.65 394.769 179.109 392.374C177.931 390.542 178.461 388.102 180.293 386.924C180.307 386.914 180.322 386.905 180.336 386.896C180.677 387.457 181.022 388.017 181.37 388.575ZM166.314 356.559C166.298 356.565 166.281 356.571 166.265 356.577C164.216 357.317 163.155 359.578 163.895 361.627C165.828 366.975 168.074 372.251 170.637 377.429C171.603 379.381 173.969 380.18 175.921 379.214C175.937 379.206 175.952 379.198 175.968 379.19C175.66 378.608 175.357 378.025 175.058 377.44C174.758 376.855 174.463 376.267 174.171 375.679C171.675 370.635 169.487 365.496 167.605 360.286C167.381 359.668 167.162 359.048 166.947 358.427C166.732 357.806 166.521 357.183 166.314 356.559ZM159.441 323.86C159.424 323.862 159.407 323.864 159.389 323.866C157.227 324.129 155.687 326.095 155.95 328.257C156.639 333.923 157.648 339.569 158.98 345.167C159.485 347.286 161.611 348.595 163.73 348.091C163.747 348.087 163.764 348.083 163.781 348.078C163.612 347.443 163.447 346.806 163.287 346.169C163.126 345.532 162.969 344.893 162.817 344.254C161.519 338.801 160.537 333.301 159.865 327.781C159.786 327.129 159.711 326.476 159.64 325.822C159.57 325.168 159.503 324.514 159.441 323.86ZM160.024 290.447C160.006 290.445 159.989 290.444 159.972 290.442C157.805 290.218 155.868 291.793 155.644 293.96C155.056 299.652 154.786 305.38 154.837 311.116C154.856 313.294 156.637 315.044 158.815 315.025C158.833 315.025 158.85 315.024 158.867 315.024C158.844 314.367 158.825 313.71 158.811 313.053C158.796 312.395 158.786 311.738 158.781 311.081C158.731 305.492 158.995 299.911 159.567 294.365C159.635 293.711 159.706 293.058 159.782 292.405C159.859 291.752 159.939 291.099 160.024 290.447ZM167.989 257.993C167.973 257.987 167.957 257.982 167.94 257.976C165.877 257.279 163.638 258.386 162.941 260.449C161.103 265.883 159.574 271.41 158.357 277.001C157.893 279.129 159.243 281.23 161.371 281.694C161.388 281.697 161.405 281.701 161.422 281.704C161.545 281.059 161.672 280.414 161.803 279.77C161.935 279.125 162.07 278.482 162.21 277.84C163.396 272.392 164.887 267.007 166.677 261.713C166.888 261.09 167.102 260.469 167.321 259.849C167.54 259.229 167.762 258.61 167.989 257.993ZM182.969 228.121C182.954 228.112 182.939 228.102 182.924 228.093C181.068 226.953 178.639 227.533 177.499 229.389C174.487 234.292 171.768 239.342 169.346 244.51C168.421 246.483 169.271 248.831 171.244 249.755C171.259 249.763 171.275 249.77 171.291 249.777C171.554 249.175 171.821 248.574 172.092 247.975C172.363 247.376 172.638 246.779 172.917 246.184C175.276 241.149 177.925 236.23 180.86 231.454C181.203 230.894 181.551 230.336 181.903 229.78C182.254 229.225 182.609 228.672 182.969 228.121ZM204.251 202.362C204.239 202.35 204.227 202.338 204.214 202.326C202.661 200.799 200.164 200.82 198.637 202.373C194.587 206.493 190.807 210.805 187.303 215.284C185.961 217 186.263 219.478 187.979 220.821C187.993 220.832 188.006 220.842 188.02 220.853C188.411 220.325 188.806 219.799 189.204 219.276C189.602 218.753 190.004 218.233 190.409 217.715C193.823 213.352 197.504 209.152 201.449 205.138C201.91 204.67 202.374 204.204 202.841 203.741C203.308 203.279 203.778 202.819 204.251 202.362ZM230.739 181.968C230.73 181.953 230.721 181.939 230.712 181.924C229.533 180.092 227.093 179.562 225.261 180.74C222.866 182.281 220.5 183.896 218.166 185.586C215.832 187.277 213.559 189.021 211.348 190.816C209.657 192.189 209.4 194.673 210.773 196.364C210.784 196.377 210.795 196.391 210.806 196.404C211.304 195.977 211.806 195.552 212.312 195.131C212.816 194.71 213.324 194.293 213.835 193.878C215.989 192.128 218.204 190.428 220.479 188.781C222.754 187.133 225.06 185.559 227.395 184.057C227.948 183.701 228.503 183.349 229.06 183.002C229.618 182.653 230.178 182.308 230.739 181.968ZM261.076 167.945C261.07 167.929 261.064 167.912 261.058 167.896C260.318 165.847 258.057 164.786 256.009 165.527C250.66 167.459 245.384 169.705 240.207 172.268C238.255 173.234 237.455 175.6 238.422 177.552C238.429 177.568 238.437 177.583 238.445 177.599C239.027 177.291 239.61 176.988 240.195 176.689C240.781 176.389 241.368 176.094 241.956 175.803C247 173.306 252.139 171.118 257.349 169.236C257.968 169.012 258.587 168.793 259.208 168.578C259.83 168.363 260.452 168.152 261.076 167.945ZM293.775 161.072C293.773 161.055 293.771 161.038 293.769 161.021C293.506 158.858 291.54 157.319 289.378 157.581C283.712 158.27 278.066 159.279 272.468 160.611C270.349 161.116 269.04 163.243 269.545 165.362C269.549 165.379 269.553 165.396 269.557 165.413C270.193 165.243 270.829 165.078 271.466 164.918C272.104 164.757 272.742 164.6 273.381 164.448C278.834 163.15 284.334 162.168 289.854 161.497C290.507 161.417 291.16 161.342 291.813 161.272C292.467 161.201 293.121 161.135 293.775 161.072ZM327.188 161.655C327.19 161.638 327.192 161.62 327.194 161.603C327.417 159.437 325.842 157.499 323.675 157.275C317.983 156.688 312.255 156.417 306.519 156.468C304.341 156.487 302.591 158.268 302.61 160.447C302.611 160.464 302.611 160.481 302.611 160.499C303.268 160.475 303.925 160.457 304.583 160.442C305.24 160.428 305.897 160.417 306.554 160.412C312.143 160.362 317.724 160.626 323.27 161.198C323.924 161.266 324.578 161.338 325.231 161.414C325.884 161.49 326.536 161.57 327.188 161.655ZM359.642 169.621C359.648 169.604 359.653 169.588 359.659 169.572C360.357 167.508 359.25 165.27 357.186 164.572C351.752 162.735 346.226 161.205 340.634 159.988C338.506 159.524 336.405 160.874 335.942 163.002C335.938 163.019 335.934 163.036 335.931 163.053C336.577 163.176 337.222 163.303 337.866 163.435C338.51 163.566 339.153 163.702 339.795 163.842C345.243 165.028 350.628 166.518 355.923 168.308C356.545 168.519 357.167 168.733 357.787 168.952C358.406 169.171 359.025 169.394 359.642 169.621ZM389.514 184.6C389.524 184.585 389.533 184.57 389.542 184.555C390.682 182.699 390.102 180.27 388.246 179.13C383.343 176.118 378.294 173.399 373.125 170.977C371.153 170.053 368.804 170.902 367.88 172.875C367.873 172.891 367.865 172.906 367.858 172.922C368.461 173.185 369.061 173.452 369.66 173.723C370.259 173.994 370.856 174.269 371.452 174.548C376.487 176.908 381.406 179.557 386.182 182.491C386.741 182.835 387.299 183.182 387.855 183.534C388.41 183.885 388.963 184.241 389.514 184.6ZM415.273 205.882C415.285 205.87 415.297 205.858 415.31 205.845C416.837 204.292 416.815 201.795 415.262 200.268C411.142 196.218 406.83 192.439 402.351 188.934C400.636 187.592 398.157 187.894 396.815 189.61C396.804 189.624 396.793 189.638 396.782 189.652C397.31 190.042 397.836 190.437 398.36 190.836C398.882 191.233 399.403 191.635 399.921 192.04C404.283 195.454 408.484 199.135 412.497 203.081C412.965 203.541 413.431 204.005 413.894 204.472C414.356 204.939 414.816 205.409 415.273 205.882ZM435.668 232.371C435.682 232.361 435.697 232.352 435.711 232.343C437.543 231.165 438.073 228.724 436.895 226.892C435.355 224.497 433.739 222.131 432.049 219.797C430.359 217.463 428.614 215.19 426.819 212.98C425.446 211.289 422.962 211.031 421.271 212.404C421.258 212.415 421.245 212.426 421.231 212.437C421.658 212.935 422.083 213.438 422.504 213.943C422.925 214.447 423.343 214.955 423.758 215.466C425.507 217.62 427.207 219.835 428.855 222.11C430.502 224.386 432.077 226.692 433.578 229.026C433.934 229.579 434.286 230.135 434.634 230.691C434.982 231.25 435.327 231.809 435.668 232.371ZM449.69 262.707C449.707 262.701 449.723 262.695 449.74 262.689C451.788 261.949 452.849 259.688 452.109 257.64C450.176 252.291 447.93 247.016 445.367 241.838C444.401 239.886 442.035 239.087 440.083 240.053C440.067 240.061 440.052 240.068 440.036 240.076C440.344 240.658 440.647 241.241 440.946 241.826C441.246 242.412 441.541 242.999 441.833 243.588C444.329 248.631 446.517 253.771 448.399 258.98C448.623 259.599 448.842 260.219 449.057 260.839C449.272 261.461 449.483 262.083 449.69 262.707ZM456.563 295.406C456.58 295.404 456.597 295.402 456.615 295.4C458.777 295.137 460.317 293.171 460.054 291.009C459.365 285.343 458.356 279.697 457.024 274.099C456.519 271.98 454.393 270.671 452.274 271.176C452.257 271.18 452.24 271.184 452.223 271.188C452.392 271.824 452.557 272.46 452.718 273.097C452.878 273.735 453.035 274.373 453.187 275.013C454.485 280.465 455.467 285.965 456.139 291.485C456.218 292.138 456.293 292.791 456.364 293.444C456.434 294.098 456.501 294.752 456.563 295.406ZM455.981 328.819C455.998 328.821 456.015 328.823 456.032 328.825C458.199 329.048 460.137 327.473 460.36 325.306C460.948 319.615 461.218 313.886 461.167 308.151C461.148 305.972 459.367 304.222 457.189 304.242C457.171 304.242 457.154 304.242 457.137 304.242C457.16 304.9 457.179 305.557 457.193 306.214C457.208 306.871 457.218 307.528 457.224 308.185C457.273 313.774 457.009 319.355 456.437 324.902C456.369 325.555 456.298 326.209 456.222 326.862C456.146 327.515 456.065 328.167 455.981 328.819ZM448.015 361.273C448.031 361.279 448.047 361.285 448.064 361.29C450.127 361.988 452.366 360.881 453.063 358.817C454.901 353.383 456.43 347.857 457.648 342.266C458.111 340.137 456.761 338.036 454.633 337.573C454.616 337.569 454.599 337.566 454.582 337.562C454.459 338.208 454.332 338.853 454.201 339.497C454.069 340.141 453.934 340.784 453.794 341.427C452.608 346.875 451.117 352.26 449.327 357.554C449.117 358.177 448.902 358.798 448.683 359.418C448.464 360.038 448.242 360.656 448.015 361.273ZM433.035 391.146C433.05 391.155 433.065 391.164 433.08 391.173C434.936 392.314 437.365 391.733 438.505 389.877C441.517 384.974 444.237 379.925 446.658 374.756C447.583 372.784 446.733 370.436 444.761 369.511C444.745 369.504 444.729 369.497 444.713 369.49C444.45 370.092 444.183 370.692 443.912 371.292C443.641 371.89 443.366 372.487 443.087 373.083C440.728 378.118 438.079 383.037 435.145 387.813C434.801 388.373 434.453 388.93 434.101 389.486C433.75 390.041 433.395 390.594 433.035 391.146ZM411.753 416.904C411.765 416.916 411.777 416.929 411.79 416.941C413.343 418.468 415.84 418.447 417.367 416.893C421.417 412.773 425.197 408.461 428.701 403.982C430.043 402.267 429.741 399.788 428.025 398.446C428.012 398.435 427.998 398.424 427.984 398.414C427.593 398.942 427.198 399.467 426.8 399.991C426.402 400.513 426 401.034 425.595 401.552C422.182 405.914 418.5 410.115 414.555 414.128C414.094 414.597 413.631 415.062 413.163 415.525C412.697 415.988 412.226 416.447 411.753 416.904ZM385.265 437.299C385.274 437.313 385.283 437.328 385.292 437.342C386.471 439.174 388.911 439.704 390.743 438.526C393.138 436.986 395.504 435.371 397.838 433.68C400.172 431.99 402.445 430.246 404.656 428.45C406.347 427.077 406.604 424.593 405.231 422.902C405.22 422.889 405.209 422.876 405.198 422.863C404.7 423.29 404.198 423.714 403.692 424.136C403.188 424.556 402.68 424.974 402.17 425.389C400.015 427.138 397.8 428.838 395.525 430.486C393.25 432.134 390.944 433.708 388.61 435.209C388.056 435.565 387.501 435.917 386.944 436.265C386.386 436.614 385.826 436.958 385.265 437.299ZM354.928 451.321C354.934 451.338 354.94 451.354 354.946 451.371C355.686 453.419 357.947 454.48 359.995 453.74C365.344 451.807 370.62 449.562 375.797 446.999C377.75 446.032 378.549 443.666 377.582 441.714C377.575 441.699 377.567 441.683 377.559 441.668C376.977 441.975 376.394 442.278 375.809 442.577C375.223 442.877 374.636 443.173 374.048 443.464C369.004 445.961 363.865 448.148 358.655 450.03C358.036 450.254 357.417 450.473 356.796 450.688C356.174 450.904 355.552 451.115 354.928 451.321ZM322.229 458.194C322.231 458.211 322.233 458.229 322.235 458.246C322.498 460.408 324.464 461.948 326.626 461.685C332.292 460.996 337.938 459.988 343.536 458.655C345.655 458.151 346.964 456.024 346.46 453.905C346.456 453.888 346.451 453.871 346.447 453.854C345.812 454.023 345.175 454.188 344.538 454.349C343.9 454.51 343.262 454.666 342.623 454.818C337.17 456.116 331.67 457.099 326.15 457.77C325.497 457.849 324.844 457.924 324.191 457.995C323.537 458.066 322.883 458.132 322.229 458.194ZM288.816 457.612C288.814 457.629 288.812 457.646 288.811 457.663C288.587 459.83 290.162 461.768 292.329 461.991C298.021 462.579 303.749 462.849 309.485 462.799C311.663 462.779 313.413 460.998 313.394 458.82C313.394 458.803 313.393 458.785 313.393 458.768C312.736 458.791 312.079 458.81 311.422 458.824C310.764 458.839 310.107 458.849 309.45 458.855C303.861 458.904 298.28 458.641 292.734 458.068C292.08 458.001 291.426 457.929 290.774 457.853C290.121 457.777 289.468 457.696 288.816 457.612ZM256.362 449.646C256.356 449.662 256.351 449.679 256.345 449.695C255.647 451.758 256.755 453.997 258.818 454.695C264.252 456.532 269.779 458.061 275.37 459.279C277.498 459.742 279.599 458.392 280.063 456.264C280.066 456.247 280.07 456.23 280.073 456.213C279.427 456.09 278.782 455.963 278.138 455.832C277.494 455.7 276.851 455.565 276.209 455.425C270.761 454.239 265.376 452.748 260.081 450.958C259.459 450.748 258.837 450.533 258.217 450.314C257.598 450.096 256.979 449.873 256.362 449.646ZM226.49 434.667C226.48 434.681 226.471 434.696 226.462 434.711C225.322 436.567 225.902 438.996 227.758 440.136C232.661 443.148 237.711 445.868 242.879 448.29C244.851 449.214 247.2 448.364 248.124 446.392C248.131 446.376 248.139 446.36 248.146 446.344C247.544 446.081 246.943 445.814 246.344 445.543C245.745 445.272 245.148 444.997 244.553 444.718C239.517 442.359 234.598 439.71 229.823 436.776C229.263 436.432 228.705 436.084 228.149 435.732C227.594 435.381 227.041 435.026 226.49 434.667ZM219.222 429.615C219.211 429.629 219.2 429.643 219.19 429.656C217.847 431.372 215.368 431.675 213.653 430.332C209.174 426.828 204.862 423.049 200.742 418.999C199.189 417.472 199.167 414.974 200.694 413.421C200.707 413.409 200.719 413.396 200.731 413.384C201.188 413.858 201.648 414.328 202.11 414.794C202.573 415.262 203.039 415.726 203.507 416.186C207.52 420.131 211.721 423.813 216.083 427.226C216.602 427.631 217.122 428.033 217.645 428.431C218.168 428.829 218.694 429.224 219.222 429.615Z" fill="#FF7384" fill-opacity="0.9"/>
<path fill-rule="evenodd" clip-rule="evenodd" d="M233.019 207.049C175.442 248.747 162.282 328.828 203.625 385.914C244.968 443.001 325.158 455.477 382.735 413.779C440.312 372.081 453.472 292 412.129 234.913C370.786 177.826 290.596 165.351 233.019 207.049ZM231.484 204.929C172.726 247.482 159.295 329.205 201.487 387.463C243.678 445.721 325.513 458.452 384.271 415.899C443.029 373.346 456.459 291.622 414.268 233.364C372.077 175.107 290.241 162.375 231.484 204.929Z" fill="#FF7384" fill-opacity="0.9"/>
<path d="M390.024 220.59L392.422 223.511L386.856 228.079C386.207 228.612 386.474 228.937 386.816 229.354L403.375 249.529C403.718 249.946 403.984 250.271 404.633 249.738L410.199 245.17L412.597 248.092L395.53 262.1C387.784 268.457 376.74 268.052 370.079 259.936C363.417 251.82 365.211 240.955 372.956 234.598L390.024 220.59ZM375.355 237.52C369.604 242.24 368.194 247.899 374.856 256.015C381.517 264.132 387.381 263.899 393.131 259.179L399.161 254.23C399.81 253.697 399.544 253.372 399.201 252.955L382.642 232.78C382.299 232.363 382.033 232.038 381.384 232.571L375.355 237.52Z" fill="#FC5C5C"/>
<path d="M350.187 299.316L379.081 275.601L376.683 272.679L371.257 277.133C370.608 277.666 370.341 277.341 369.998 276.924L353.44 256.749C353.097 256.332 352.831 256.007 353.48 255.474L358.906 251.02L356.508 248.098L327.614 271.814L335.837 281.831L339.361 278.938L334.146 272.585C333.804 272.167 333.537 271.843 334.186 271.31L347.729 260.194C348.378 259.661 348.645 259.986 348.987 260.403L356.22 269.215L348.846 275.268L344.62 270.12L341.096 273.013L351.754 285.999L355.279 283.106L351.054 277.958L358.428 271.905L365.546 280.578C365.889 280.995 366.155 281.32 365.506 281.853L351.963 292.968C351.314 293.501 351.048 293.177 350.705 292.759L345.49 286.405L341.965 289.298L350.187 299.316Z" fill="#FC5C5C"/>
<path d="M311.407 326.256L315.998 322.488C316.647 321.955 316.427 321.592 316.085 321.175L296.519 297.336L299.997 294.481L333.772 304.329L318.355 285.545C318.013 285.128 317.746 284.803 317.097 285.336L311.068 290.285L308.67 287.363L324.577 274.306L326.976 277.228L321.874 281.415C321.225 281.948 321.491 282.273 321.834 282.69L338.393 302.865C338.735 303.282 339.048 303.569 339.697 303.036L344.753 298.887L347.151 301.809L335.881 311.059L306.582 302.505L319.563 318.32C319.906 318.737 320.218 319.024 320.868 318.491L325.923 314.342L328.321 317.263L313.805 329.178L311.407 326.256Z" fill="#FC5C5C"/>
<path d="M281.053 316.162C280.711 315.744 280.444 315.42 279.795 315.953L274.23 320.521L271.831 317.599L288.435 303.971L290.833 306.893L285.268 311.461C284.618 311.994 284.885 312.318 285.227 312.736L301.786 332.91C302.129 333.328 302.395 333.653 303.045 333.12L308.61 328.552L311.008 331.474L294.405 345.101L292.007 342.179L297.572 337.611C298.221 337.079 297.955 336.754 297.612 336.336L281.053 316.162Z" fill="#FC5C5C"/>
<path d="M262.73 371.099L291.623 347.384L289.225 344.462L283.799 348.916C283.15 349.449 282.883 349.124 282.541 348.707L265.982 328.532C265.639 328.115 265.373 327.79 266.022 327.257L271.448 322.803L269.05 319.882L240.156 343.597L248.379 353.615L251.903 350.722L246.688 344.368C246.346 343.95 246.079 343.626 246.729 343.093L260.271 331.977C260.92 331.444 261.187 331.769 261.53 332.187L268.762 340.998L261.388 347.051L257.163 341.903L253.638 344.796L264.296 357.782L267.821 354.889L263.596 349.741L270.97 343.688L278.088 352.361C278.431 352.779 278.697 353.103 278.048 353.636L264.506 364.751C263.856 365.284 263.59 364.96 263.247 364.542L258.032 358.189L254.507 361.082L262.73 371.099Z" fill="#FC5C5C"/>
<path d="M237.12 346.089L239.518 349.011L233.952 353.579C233.303 354.112 233.57 354.437 233.912 354.854L250.471 375.029C250.814 375.446 251.08 375.771 251.729 375.238L257.295 370.67L259.693 373.592L242.626 387.6C234.881 393.957 223.836 393.552 217.175 385.436C210.513 377.32 212.307 366.455 220.052 360.098L237.12 346.089ZM222.451 363.02C216.7 367.74 215.29 373.399 221.952 381.515C228.613 389.631 234.477 389.399 240.228 384.678L246.257 379.73C246.906 379.197 246.64 378.872 246.297 378.455L229.738 358.28C229.396 357.863 229.129 357.538 228.48 358.071L222.451 363.02Z" fill="#FC5C5C"/>
<g opacity="0.3" filter="url(#filter0_f_4_1682)">
<path fill-rule="evenodd" clip-rule="evenodd" d="M182.784 386.842C183.132 387.399 183.484 387.954 183.84 388.508C185.341 390.842 186.915 393.148 188.563 395.423C190.211 397.698 191.911 399.913 193.66 402.068C194.075 402.579 194.493 403.086 194.913 403.59C195.335 404.096 195.759 404.598 196.186 405.097C196.173 405.108 196.16 405.119 196.146 405.13C194.455 406.503 191.971 406.245 190.598 404.554C188.803 402.343 187.059 400.071 185.368 397.737C183.678 395.403 182.063 393.036 180.522 390.641C179.344 388.809 179.874 386.369 181.706 385.191C181.721 385.181 181.735 385.172 181.75 385.163C182.09 385.724 182.435 386.284 182.784 386.842ZM167.727 354.827C167.711 354.832 167.694 354.838 167.678 354.844C165.629 355.584 164.569 357.845 165.309 359.894C167.241 365.242 169.487 370.518 172.05 375.696C173.016 377.648 175.382 378.447 177.334 377.481C177.35 377.473 177.366 377.465 177.381 377.457C177.074 376.875 176.77 376.292 176.471 375.708C176.171 375.122 175.876 374.534 175.585 373.946C173.088 368.902 170.901 363.763 169.018 358.553C168.795 357.935 168.575 357.315 168.36 356.694C168.145 356.073 167.934 355.45 167.727 354.827ZM160.855 322.127C160.837 322.129 160.82 322.131 160.803 322.133C158.64 322.396 157.101 324.362 157.364 326.525C158.053 332.191 159.061 337.836 160.394 343.434C160.898 345.553 163.025 346.862 165.144 346.358C165.161 346.354 165.178 346.35 165.195 346.345C165.025 345.71 164.861 345.073 164.7 344.436C164.539 343.799 164.383 343.16 164.23 342.521C162.932 337.068 161.95 331.568 161.279 326.048C161.199 325.396 161.124 324.743 161.054 324.089C160.983 323.436 160.917 322.782 160.855 322.127ZM161.437 288.714C161.42 288.712 161.403 288.711 161.385 288.709C159.219 288.485 157.281 290.06 157.057 292.227C156.47 297.919 156.199 303.647 156.25 309.383C156.269 311.561 158.051 313.311 160.229 313.292C160.246 313.292 160.263 313.292 160.281 313.291C160.258 312.634 160.239 311.977 160.224 311.32C160.21 310.663 160.2 310.005 160.194 309.348C160.144 303.759 160.408 298.178 160.98 292.632C161.048 291.978 161.12 291.325 161.196 290.672C161.272 290.019 161.352 289.366 161.437 288.714ZM169.403 256.26C169.386 256.255 169.37 256.249 169.354 256.243C167.29 255.546 165.052 256.653 164.354 258.716C162.517 264.15 160.987 269.677 159.77 275.268C159.307 277.396 160.656 279.497 162.785 279.961C162.802 279.964 162.818 279.968 162.835 279.972C162.958 279.326 163.085 278.681 163.217 278.037C163.348 277.393 163.484 276.749 163.624 276.107C164.81 270.659 166.3 265.274 168.09 259.98C168.301 259.357 168.515 258.736 168.734 258.116C168.953 257.496 169.176 256.877 169.403 256.26ZM184.382 226.388C184.367 226.379 184.352 226.369 184.337 226.36C182.481 225.22 180.053 225.8 178.912 227.656C175.9 232.559 173.181 237.609 170.759 242.777C169.835 244.75 170.684 247.098 172.657 248.022C172.673 248.03 172.688 248.037 172.704 248.044C172.967 247.442 173.234 246.841 173.505 246.242C173.776 245.643 174.051 245.046 174.33 244.451C176.69 239.416 179.339 234.497 182.273 229.721C182.617 229.161 182.965 228.603 183.316 228.047C183.668 227.492 184.023 226.939 184.382 226.388ZM205.665 200.63C205.652 200.617 205.64 200.605 205.628 200.593C204.074 199.066 201.577 199.087 200.05 200.64C196 204.76 192.221 209.073 188.716 213.551C187.374 215.267 187.677 217.746 189.392 219.088C189.406 219.099 189.42 219.109 189.434 219.12C189.825 218.592 190.219 218.066 190.618 217.543C191.016 217.02 191.417 216.5 191.823 215.982C195.236 211.619 198.917 207.419 202.863 203.405C203.323 202.937 203.787 202.471 204.254 202.008C204.721 201.546 205.191 201.086 205.665 200.63ZM232.153 180.235C232.144 180.22 232.134 180.206 232.125 180.191C230.947 178.359 228.506 177.829 226.674 179.007C224.279 180.548 221.913 182.163 219.579 183.853C217.245 185.544 214.972 187.288 212.762 189.083C211.071 190.456 210.813 192.94 212.186 194.631C212.197 194.644 212.208 194.658 212.219 194.671C212.718 194.244 213.22 193.82 213.725 193.398C214.229 192.978 214.737 192.56 215.248 192.145C217.402 190.395 219.617 188.695 221.892 187.048C224.168 185.4 226.474 183.826 228.808 182.325C229.362 181.969 229.917 181.617 230.473 181.269C231.032 180.92 231.591 180.575 232.153 180.235ZM262.489 166.212C262.483 166.196 262.478 166.179 262.472 166.163C261.731 164.114 259.471 163.054 257.422 163.794C252.074 165.726 246.798 167.972 241.62 170.535C239.668 171.501 238.869 173.867 239.835 175.819C239.843 175.835 239.851 175.85 239.858 175.866C240.44 175.558 241.024 175.255 241.608 174.956C242.194 174.656 242.781 174.361 243.37 174.07C248.414 171.573 253.553 169.385 258.762 167.503C259.381 167.28 260.001 167.06 260.621 166.845C261.243 166.63 261.866 166.419 262.489 166.212ZM295.188 159.34C295.187 159.322 295.185 159.305 295.182 159.288C294.919 157.125 292.953 155.586 290.791 155.849C285.125 156.538 279.479 157.546 273.881 158.879C271.762 159.383 270.453 161.51 270.958 163.629C270.962 163.646 270.966 163.663 270.97 163.68C271.606 163.51 272.242 163.345 272.879 163.185C273.517 163.024 274.156 162.868 274.795 162.715C280.248 161.417 285.747 160.435 291.267 159.764C291.92 159.684 292.573 159.609 293.226 159.539C293.88 159.468 294.534 159.402 295.188 159.34ZM328.601 159.922C328.603 159.905 328.605 159.888 328.607 159.87C328.831 157.704 327.255 155.766 325.089 155.542C319.397 154.955 313.669 154.684 307.933 154.735C305.755 154.754 304.004 156.536 304.024 158.714C304.024 158.731 304.024 158.748 304.025 158.766C304.682 158.743 305.339 158.724 305.996 158.709C306.653 158.695 307.31 158.685 307.968 158.679C313.556 158.629 319.138 158.893 324.684 159.465C325.338 159.533 325.991 159.605 326.644 159.681C327.297 159.757 327.949 159.837 328.601 159.922ZM361.055 167.888C361.061 167.871 361.067 167.855 361.072 167.839C361.77 165.775 360.663 163.537 358.599 162.839C353.166 161.002 347.639 159.472 342.048 158.255C339.919 157.791 337.818 159.141 337.355 161.27C337.351 161.286 337.348 161.303 337.344 161.32C337.99 161.443 338.635 161.57 339.279 161.702C339.923 161.833 340.566 161.969 341.209 162.109C346.657 163.295 352.042 164.785 357.336 166.575C357.959 166.786 358.58 167 359.2 167.219C359.82 167.438 360.438 167.661 361.055 167.888ZM390.928 182.867C390.937 182.852 390.946 182.837 390.955 182.822C392.096 180.966 391.515 178.537 389.659 177.397C384.756 174.385 379.707 171.666 374.538 169.244C372.566 168.32 370.218 169.169 369.293 171.142C369.286 171.158 369.279 171.173 369.272 171.189C369.874 171.452 370.475 171.719 371.074 171.99C371.672 172.261 372.269 172.536 372.865 172.815C377.9 175.175 382.819 177.824 387.595 180.758C388.155 181.102 388.712 181.45 389.268 181.801C389.823 182.153 390.377 182.508 390.928 182.867ZM416.686 204.15C416.699 204.137 416.711 204.125 416.723 204.113C418.25 202.559 418.229 200.062 416.675 198.535C412.555 194.485 408.243 190.706 403.764 187.201C402.049 185.859 399.57 186.162 398.228 187.877C398.217 187.891 398.206 187.905 398.196 187.919C398.724 188.31 399.249 188.704 399.773 189.103C400.296 189.5 400.816 189.902 401.334 190.307C405.696 193.721 409.897 197.402 413.91 201.348C414.379 201.808 414.844 202.272 415.308 202.739C415.77 203.206 416.229 203.676 416.686 204.15ZM437.081 230.638C437.096 230.629 437.11 230.619 437.125 230.61C438.957 229.432 439.487 226.991 438.308 225.159C436.768 222.764 435.153 220.398 433.462 218.064C431.772 215.73 430.028 213.457 428.233 211.247C426.859 209.556 424.376 209.298 422.685 210.671C422.671 210.682 422.658 210.693 422.645 210.704C423.072 211.203 423.496 211.705 423.918 212.21C424.338 212.714 424.756 213.222 425.171 213.733C426.92 215.887 428.62 218.102 430.268 220.377C431.916 222.653 433.49 224.959 434.991 227.293C435.347 227.846 435.699 228.402 436.047 228.958C436.396 229.517 436.74 230.076 437.081 230.638ZM451.103 260.974C451.12 260.968 451.136 260.963 451.153 260.957C453.201 260.216 454.262 257.956 453.522 255.907C451.589 250.559 449.344 245.283 446.781 240.105C445.815 238.153 443.449 237.354 441.496 238.32C441.481 238.328 441.465 238.336 441.45 238.343C441.757 238.925 442.061 239.509 442.36 240.093C442.659 240.679 442.955 241.266 443.246 241.855C445.743 246.898 447.93 252.038 449.813 257.247C450.036 257.866 450.255 258.486 450.47 259.106C450.686 259.728 450.897 260.351 451.103 260.974ZM457.976 293.673C457.993 293.671 458.011 293.669 458.028 293.667C460.19 293.404 461.73 291.438 461.467 289.276C460.778 283.61 459.77 277.964 458.437 272.366C457.933 270.247 455.806 268.938 453.687 269.443C453.67 269.447 453.653 269.451 453.636 269.455C453.805 270.091 453.97 270.727 454.131 271.364C454.292 272.002 454.448 272.641 454.6 273.28C455.898 278.733 456.881 284.232 457.552 289.752C457.631 290.405 457.706 291.058 457.777 291.711C457.848 292.365 457.914 293.019 457.976 293.673ZM457.394 327.086C457.411 327.088 457.428 327.09 457.445 327.092C459.612 327.315 461.55 325.74 461.773 323.574C462.361 317.882 462.632 312.154 462.581 306.418C462.562 304.24 460.78 302.489 458.602 302.509C458.585 302.509 458.567 302.509 458.55 302.509C458.573 303.167 458.592 303.824 458.606 304.481C458.621 305.138 458.631 305.795 458.637 306.453C458.686 312.041 458.423 317.622 457.85 323.169C457.783 323.823 457.711 324.476 457.635 325.129C457.559 325.782 457.478 326.434 457.394 327.086ZM449.428 359.54C449.444 359.546 449.461 359.552 449.477 359.557C451.541 360.255 453.779 359.148 454.477 357.084C456.314 351.651 457.844 346.124 459.061 340.533C459.524 338.404 458.174 336.303 456.046 335.84C456.029 335.836 456.012 335.833 455.995 335.829C455.873 336.475 455.745 337.12 455.614 337.764C455.483 338.408 455.347 339.051 455.207 339.694C454.021 345.142 452.531 350.527 450.74 355.821C450.53 356.444 450.315 357.065 450.096 357.685C449.878 358.305 449.655 358.923 449.428 359.54ZM434.449 389.413C434.464 389.422 434.478 389.431 434.493 389.44C436.349 390.581 438.778 390 439.918 388.144C442.931 383.241 445.65 378.192 448.072 373.023C448.996 371.051 448.146 368.703 446.174 367.778C446.158 367.771 446.142 367.764 446.126 367.757C445.863 368.359 445.596 368.96 445.325 369.559C445.054 370.157 444.779 370.754 444.5 371.35C442.141 376.385 439.492 381.304 436.558 386.08C436.214 386.64 435.866 387.197 435.514 387.753C435.163 388.308 434.808 388.862 434.449 389.413ZM413.166 415.171C413.178 415.183 413.191 415.196 413.203 415.208C414.757 416.735 417.254 416.714 418.781 415.16C422.831 411.04 426.61 406.728 430.114 402.249C431.457 400.534 431.154 398.055 429.439 396.713C429.425 396.702 429.411 396.691 429.397 396.681C429.006 397.209 428.612 397.734 428.213 398.258C427.815 398.78 427.414 399.301 427.008 399.819C423.595 404.181 419.913 408.382 415.968 412.395C415.508 412.864 415.044 413.329 414.576 413.792C414.11 414.255 413.64 414.714 413.166 415.171ZM386.678 435.566C386.687 435.581 386.696 435.595 386.706 435.61C387.884 437.442 390.324 437.972 392.156 436.793C394.551 435.253 396.918 433.638 399.252 431.947C401.586 430.257 403.858 428.513 406.069 426.718C407.76 425.344 408.018 422.861 406.645 421.17C406.634 421.156 406.623 421.143 406.612 421.13C406.113 421.557 405.611 421.981 405.106 422.403C404.601 422.823 404.094 423.241 403.583 423.656C401.429 425.405 399.214 427.105 396.938 428.753C394.663 430.401 392.357 431.975 390.023 433.476C389.469 433.832 388.914 434.184 388.357 434.532C387.799 434.881 387.239 435.225 386.678 435.566ZM356.342 449.588C356.347 449.605 356.353 449.621 356.359 449.638C357.099 451.686 359.36 452.747 361.409 452.007C366.757 450.074 372.033 447.829 377.211 445.266C379.163 444.299 379.962 441.934 378.996 439.981C378.988 439.966 378.98 439.95 378.972 439.935C378.39 440.242 377.807 440.545 377.223 440.845C376.637 441.144 376.05 441.44 375.461 441.731C370.417 444.228 365.278 446.415 360.068 448.298C359.45 448.521 358.83 448.74 358.209 448.955C357.588 449.171 356.965 449.382 356.342 449.588ZM323.642 456.461C323.644 456.478 323.646 456.496 323.648 456.513C323.911 458.675 325.877 460.215 328.04 459.952C333.706 459.263 339.351 458.255 344.949 456.922C347.068 456.418 348.377 454.291 347.873 452.172C347.869 452.155 347.865 452.138 347.86 452.121C347.225 452.29 346.588 452.455 345.951 452.616C345.314 452.777 344.675 452.933 344.036 453.085C338.583 454.383 333.083 455.366 327.564 456.037C326.911 456.116 326.258 456.191 325.604 456.262C324.951 456.333 324.297 456.399 323.642 456.461ZM290.23 455.879C290.228 455.896 290.226 455.913 290.224 455.93C290 458.097 291.575 460.035 293.742 460.258C299.434 460.846 305.162 461.117 310.898 461.066C313.076 461.047 314.826 459.265 314.807 457.087C314.807 457.07 314.807 457.052 314.806 457.035C314.149 457.058 313.492 457.077 312.835 457.091C312.178 457.106 311.52 457.116 310.863 457.122C305.275 457.171 299.693 456.908 294.147 456.335C293.493 456.268 292.84 456.196 292.187 456.12C291.534 456.044 290.881 455.963 290.23 455.879ZM257.775 447.913C257.77 447.929 257.764 447.946 257.758 447.962C257.061 450.026 258.168 452.264 260.231 452.962C265.665 454.799 271.192 456.329 276.783 457.546C278.911 458.009 281.012 456.659 281.476 454.531C281.48 454.514 281.483 454.497 281.487 454.48C280.841 454.357 280.196 454.23 279.552 454.099C278.908 453.968 278.264 453.832 277.622 453.692C272.174 452.506 266.789 451.016 261.495 449.225C260.872 449.015 260.251 448.8 259.631 448.581C259.011 448.363 258.392 448.14 257.775 447.913ZM227.903 432.934C227.894 432.949 227.884 432.963 227.875 432.978C226.735 434.834 227.315 437.263 229.171 438.403C234.074 441.416 239.124 444.135 244.292 446.557C246.265 447.481 248.613 446.631 249.537 444.659C249.545 444.643 249.552 444.627 249.559 444.611C248.957 444.348 248.356 444.081 247.757 443.81C247.158 443.539 246.561 443.264 245.966 442.985C240.931 440.626 236.012 437.977 231.236 435.043C230.676 434.699 230.118 434.351 229.562 433.999C229.007 433.648 228.454 433.293 227.903 432.934ZM220.635 427.882C220.624 427.896 220.614 427.91 220.603 427.924C219.261 429.639 216.782 429.942 215.066 428.599C210.588 425.095 206.275 421.316 202.155 417.266C200.602 415.739 200.581 413.241 202.108 411.688C202.12 411.676 202.132 411.663 202.145 411.651C202.602 412.125 203.061 412.595 203.523 413.061C203.986 413.529 204.452 413.993 204.92 414.453C208.934 418.398 213.134 422.08 217.497 425.493C218.015 425.899 218.535 426.3 219.058 426.698C219.581 427.096 220.107 427.491 220.635 427.882Z" fill="#FF7384" fill-opacity="0.9"/>
<path fill-rule="evenodd" clip-rule="evenodd" d="M234.432 205.316C176.856 247.014 163.695 327.095 205.038 384.182C246.381 441.268 326.572 453.744 384.149 412.046C441.725 370.348 454.886 290.267 413.543 233.18C372.2 176.094 292.009 163.618 234.432 205.316ZM232.897 203.196C174.139 245.749 160.709 327.473 202.9 385.73C245.091 443.988 326.926 456.719 385.684 414.166C444.442 371.613 457.872 289.89 415.681 231.632C373.49 173.374 291.655 160.643 232.897 203.196Z" fill="#FF7384" fill-opacity="0.9"/>
<path d="M477.519 217.906L162.422 446.103L136.848 410.79L451.945 182.593L477.519 217.906Z" fill="#FFF3F3"/>
<g opacity="0.2" filter="url(#filter1_f_4_1682)">
<path d="M390.024 220.589L392.422 223.511L386.856 228.079C386.207 228.612 386.474 228.937 386.816 229.354L403.375 249.529C403.718 249.946 403.984 250.271 404.633 249.738L410.199 245.17L412.597 248.092L395.53 262.1C387.784 268.457 376.74 268.052 370.079 259.936C363.417 251.82 365.211 240.955 372.956 234.598L390.024 220.589ZM375.355 237.52C369.604 242.24 368.194 247.899 374.856 256.015C381.517 264.131 387.381 263.899 393.131 259.178L399.161 254.23C399.81 253.697 399.544 253.372 399.201 252.955L382.642 232.78C382.299 232.363 382.033 232.038 381.384 232.571L375.355 237.52Z" fill="#EA4646"/>
<path d="M350.187 299.316L379.081 275.601L376.683 272.679L371.257 277.133C370.608 277.665 370.341 277.341 369.998 276.923L353.44 256.749C353.097 256.331 352.831 256.007 353.48 255.474L358.906 251.02L356.508 248.098L327.614 271.813L335.837 281.831L339.361 278.938L334.146 272.584C333.804 272.167 333.537 271.842 334.186 271.309L347.729 260.194C348.378 259.661 348.645 259.986 348.987 260.403L356.22 269.215L348.846 275.268L344.62 270.12L341.096 273.013L351.754 285.999L355.279 283.106L351.054 277.958L358.428 271.905L365.546 280.578C365.889 280.995 366.155 281.32 365.506 281.853L351.963 292.968C351.314 293.501 351.048 293.176 350.705 292.759L345.49 286.405L341.965 289.298L350.187 299.316Z" fill="#EA4646"/>
<path d="M311.407 326.256L315.998 322.488C316.647 321.955 316.427 321.592 316.085 321.175L296.519 297.336L299.997 294.481L333.772 304.328L318.355 285.545C318.013 285.128 317.746 284.803 317.097 285.336L311.068 290.284L308.67 287.363L324.577 274.306L326.976 277.228L321.874 281.415C321.225 281.948 321.491 282.273 321.834 282.69L338.393 302.865C338.735 303.282 339.048 303.569 339.697 303.036L344.753 298.887L347.151 301.808L335.881 311.058L306.582 302.505L319.563 318.32C319.906 318.737 320.218 319.024 320.868 318.491L325.923 314.341L328.321 317.263L313.805 329.178L311.407 326.256Z" fill="#EA4646"/>
<path d="M281.053 316.162C280.711 315.744 280.444 315.42 279.795 315.952L274.23 320.52L271.831 317.599L288.435 303.971L290.833 306.893L285.268 311.461C284.618 311.994 284.885 312.318 285.227 312.736L301.786 332.91C302.129 333.328 302.395 333.652 303.045 333.119L308.61 328.551L311.008 331.473L294.405 345.101L292.007 342.179L297.572 337.611C298.221 337.078 297.955 336.754 297.612 336.336L281.053 316.162Z" fill="#EA4646"/>
<path d="M262.73 371.099L291.623 347.384L289.225 344.462L283.799 348.916C283.15 349.449 282.883 349.124 282.541 348.707L265.982 328.532C265.639 328.115 265.373 327.79 266.022 327.257L271.448 322.803L269.05 319.881L240.156 343.597L248.379 353.614L251.903 350.721L246.688 344.367C246.346 343.95 246.079 343.625 246.729 343.093L260.271 331.977C260.92 331.444 261.187 331.769 261.53 332.186L268.762 340.998L261.388 347.051L257.163 341.903L253.638 344.796L264.296 357.782L267.821 354.889L263.596 349.741L270.97 343.688L278.088 352.361C278.431 352.778 278.697 353.103 278.048 353.636L264.506 364.751C263.856 365.284 263.59 364.96 263.247 364.542L258.032 358.188L254.507 361.081L262.73 371.099Z" fill="#EA4646"/>
<path d="M237.12 346.089L239.518 349.011L233.952 353.579C233.303 354.112 233.57 354.436 233.912 354.854L250.471 375.028C250.814 375.446 251.08 375.771 251.729 375.238L257.295 370.67L259.693 373.592L242.626 387.6C234.881 393.957 223.836 393.552 217.175 385.436C210.513 377.319 212.307 366.455 220.052 360.097L237.12 346.089ZM222.451 363.019C216.7 367.74 215.29 373.399 221.952 381.515C228.613 389.631 234.477 389.398 240.228 384.678L246.257 379.729C246.906 379.197 246.64 378.872 246.297 378.454L229.738 358.28C229.396 357.862 229.129 357.538 228.48 358.071L222.451 363.019Z" fill="#EA4646"/>
</g>
</g>
<defs>
<filter id="filter0_f_4_1682" x="132.848" y="150.729" width="348.671" height="314.343" filterUnits="userSpaceOnUse" color-interpolation-filters="sRGB">
<feFlood flood-opacity="0" result="BackgroundImageFix"/>
<feBlend mode="normal" in="SourceGraphic" in2="BackgroundImageFix" result="shape"/>
<feGaussianBlur stdDeviation="2" result="effect1_foregroundBlur_4_1682"/>
</filter>
<filter id="filter1_f_4_1682" x="209.07" y="216.589" width="207.527" height="179.399" filterUnits="userSpaceOnUse" color-interpolation-filters="sRGB">
<feFlood flood-opacity="0" result="BackgroundImageFix"/>
<feBlend mode="normal" in="SourceGraphic" in2="BackgroundImageFix" result="shape"/>
<feGaussianBlur stdDeviation="2" result="effect1_foregroundBlur_4_1682"/>
</filter>
</defs>
</svg>
