<svg width="390" height="209" viewBox="0 0 390 209" fill="none" xmlns="http://www.w3.org/2000/svg">
<path d="M72.8082 137.984V141.381L181.757 141.381L163.72 123.701C159.982 120.037 154.955 117.984 149.72 117.984H92.8082C81.7625 117.984 72.8082 126.939 72.8082 137.984Z" fill="#FFF5EE"/>
<path d="M-4 154.852V154.852C-4 146.238 2.98343 139.254 11.5979 139.254L61.5822 139.254C67.6515 139.254 72.5716 134.334 72.5716 128.265V128.265C72.5716 122.196 77.4918 117.275 83.5611 117.275L150.076 117.275C155.38 117.275 160.467 119.382 164.218 123.133L174.481 133.396C178.232 137.147 183.319 139.254 188.623 139.254L371.147 139.254C382.193 139.254 391.147 148.209 391.147 159.254L391.147 162.178" stroke="black" stroke-width="2"/>
<path d="M-4 38.6579V38.6579C-4 30.0248 2.99849 23.0263 11.6316 23.0263L160.385 23.0263C166.467 23.0263 171.398 18.0956 171.398 12.0132V12.0132C171.398 5.93077 176.329 1.00001 182.411 1.00001L248.91 1.00001C254.221 1.00001 259.314 3.11245 263.066 6.87152L273.33 17.1548C277.081 20.9139 282.174 23.0263 287.485 23.0263L371 23.0263C382.046 23.0263 391 31.9806 391 43.0263L391 46" stroke="black" stroke-width="2"/>
<path d="M122.91 91.1907V94.5876L231.859 94.5876L213.822 76.9078C210.084 73.2433 205.058 71.1907 199.822 71.1907H142.91C131.865 71.1907 122.91 80.145 122.91 91.1907Z" fill="#FFF5EE"/>
<path d="M-3.76367 108.531V108.531C-3.76367 99.9168 3.21976 92.9333 11.8343 92.9333L111.685 92.9333C117.754 92.9333 122.674 88.0132 122.674 81.9439V81.9439C122.674 75.8746 127.594 70.9544 133.663 70.9544L200.178 70.9544C205.483 70.9544 210.57 73.0616 214.32 76.8123L224.584 87.0754C228.334 90.8262 233.421 92.9333 238.726 92.9333L371.856 92.9333C382.902 92.9333 391.856 101.888 391.856 112.933L391.856 115.858" stroke="black" stroke-width="2"/>
<path d="M-3 201.984L-3 200.495C-3 193.068 3.02083 187.047 10.4479 187.047L13.3721 187.047C19.1842 187.047 23.8958 182.336 23.8958 176.524V176.524C23.8958 170.712 28.6074 166 34.4195 166L101.496 166C106.656 166 111.617 167.995 115.341 171.567L125.676 181.48C129.4 185.053 134.36 187.047 139.521 187.047L371 187.047C382.046 187.047 391 196.002 391 207.047L391 209" stroke="black" stroke-width="2"/>
</svg>
